<svg width="338" height="338" viewBox="0 0 338 338" fill="black" xmlns="http://www.w3.org/2000/svg">
<style> 
  path {
    fill: black;
  }

@media (prefers-color-scheme: dark) {
    path {
        fill: white;
    }
}
</style>
<path d="M99.3137 36.7751C97.6058 35.0672 97.6058 32.2981 99.3137 30.5902L128.623 1.28093C130.331 -0.426978 133.1 -0.426976 134.808 1.28093L165.658 32.1306C167.365 33.8386 170.135 33.8386 171.842 32.1306L202.692 1.28093C204.4 -0.426976 207.169 -0.426978 208.877 1.28093L238.186 30.5902C239.894 32.2981 239.894 35.0672 238.186 36.7751L207.337 67.6248C205.629 69.3327 205.629 72.1018 207.337 73.8097L238.186 104.659C239.894 106.367 239.894 109.136 238.186 110.844L208.877 140.154C207.169 141.861 204.4 141.861 202.692 140.154L99.3137 36.7751Z"/>
<path d="M1.28093 202.692C-0.426974 204.4 -0.426974 207.169 1.28093 208.877L30.5902 238.186C32.2981 239.894 35.0672 239.894 36.7751 238.186L140.154 134.808C141.861 133.1 141.861 130.331 140.154 128.623L110.844 99.3137C109.136 97.6058 106.367 97.6058 104.659 99.3137L73.8097 130.163C72.1018 131.871 69.3327 131.871 67.6248 130.163L36.7751 99.3137C35.0672 97.6058 32.2981 97.6058 30.5902 99.3137L1.28093 128.623C-0.426978 130.331 -0.426976 133.1 1.28093 134.808L32.1307 165.658C33.8386 167.365 33.8386 170.135 32.1306 171.842L1.28093 202.692Z"/>
<path d="M238.186 300.725C239.894 302.433 239.894 305.202 238.186 306.91L208.877 336.219C207.169 337.927 204.4 337.927 202.692 336.219L171.842 305.369C170.135 303.661 167.365 303.661 165.658 305.369L134.808 336.219C133.1 337.927 130.331 337.927 128.623 336.219L99.3137 306.91C97.6058 305.202 97.6058 302.433 99.3137 300.725L130.163 269.875C131.871 268.167 131.871 265.398 130.163 263.69L99.3137 232.841C97.6058 231.133 97.6058 228.364 99.3137 226.656L128.623 197.346C130.331 195.639 133.1 195.639 134.808 197.346L238.186 300.725Z"/>
<path d="M197.346 202.692C195.639 204.4 195.639 207.169 197.346 208.877L226.656 238.186C228.364 239.894 231.133 239.894 232.841 238.186L263.69 207.337C265.398 205.629 268.167 205.629 269.875 207.337L300.725 238.186C302.433 239.894 305.202 239.894 306.91 238.186L336.219 208.877C337.927 207.169 337.927 204.4 336.219 202.692L305.369 171.842C303.661 170.135 303.661 167.365 305.369 165.658L336.219 134.808C337.927 133.1 337.927 130.331 336.219 128.623L306.91 99.3137C305.202 97.6058 302.433 97.6058 300.725 99.3137L197.346 202.692Z"/>
</svg>


